<svg xmlns="http://www.w3.org/2000/svg" version="1.1" x="0px" y="0px" viewBox="30 620 740 130" style="enable-background:new 0 0 800 800;" xml:space="preserve">
<g id="objects">
<path style="fill:#1D1D1B;" d="M30.885,735.995v-104.5h4.75v-11.25h15.5v11.25h6.25v-11.5h9v-8h15.25v8h2.5v11.5h4.75v20.5h6.25v8 h3.75v45h4.5v-27.25h2.25v-7.75h10.25v6.5h2.5v-5.75h4.25v-4h9.5v10.75h4.75v-23.5h16.75v20h2.75v-71h4v-20.25h8.5v20.25h3.25 v101.75h3.25v-71h3v-9.75h12v9.5h4.5v-15.25l2.25-2.25l2.875,2.875v14.625h3.125v21h5.25v8.75h4v-8.25h6.5v-6h15.5v59.25h8.75 v-4.75h7.75v-6h13.25v7.5h6.5v20h8.25v-19.75h11.75v-6.5h6.75v-14.75h18.25v-37h4.25v-4h7.75v-6.25h5.75v-4.75l4.25-2.5l2.75,2.5 v-5.25l3-3l3.75,3.25v63h4.75v-21.25h17v8.5h3.75v-6h10v-12h21.25v-10.5h22.5v10.75h5.5v-11l3.75-2.75l3.5,2.75v4.25h12.25v7h2.5 v44.75h5.25v-85.75h4.75v-6.25h-2v-10.5l4.5-3l4.25,3v10.5h-2v6h6.25v-10.5h14v10.5h3.5v3.5h-1.75v91h3.25v-35.5h20.75v-6.75h9.25 v6.5h2.25v3.25h-1.5v46.25h4.75v-49.75h20v-5.75h9.5v6h7.75v-51h3v-9.25h4v-7l3-3l3.125,3.125v5.375h4.875v10.75h11v51.25v31.75 h20.25v-117.75h3.5v-3.625h7.25v-13.625h4v-8l3-3l3.625,3.625v7.375h3.625v13.625h4v48.375h10.25v-17.75h2.75v-11.5h12v11h3.75 v-17.75l2.75-2.75l2.875,2.875v16.875h3.875v35.25h4.75v7.5h14.75v-25.5h15.75v-12.5h19.75v9.5h5.25v55.5h3.5v-70.5h11.25v-11.5h12 v10.75v120.25C770.135,735.995,30.885,735.745,30.885,735.995z" />
</g>
</svg>